<?xml version="1.0" encoding="utf-8"?>
<!-- Generator: Adobe Illustrator 16.0.0, SVG Export Plug-In . SVG Version: 6.00 Build 0)  -->
<!DOCTYPE svg PUBLIC "-//W3C//DTD SVG 1.1//EN" "http://www.w3.org/Graphics/SVG/1.1/DTD/svg11.dtd">
<svg version="1.1" id="Layer_1" xmlns="http://www.w3.org/2000/svg" xmlns:xlink="http://www.w3.org/1999/xlink" x="0px" y="0px"
	 width="80px" height="88.204px" viewBox="472.076 339.813 80 88.204" enable-background="new 472.076 339.813 80 88.204"
	 xml:space="preserve">
<path fill="#BE6F6F" d="M547.964,359.168l-33.777-17.607c-1.268-0.859-2.956-0.859-4.222,0l-33.777,17.607
	c-1.267,0.858-2.111,2.146-2.111,3.865v42.087c0,1.72,0.844,3.007,2.111,3.866l33.777,17.608c1.267,0.428,2.532,0.428,3.8,0
	l33.776-17.608c1.69-0.859,2.535-2.146,2.535-3.866v-42.087C550.076,361.314,549.231,360.026,547.964,359.168z M519.174,406.554
	c0,0.64-0.234,1.194-0.701,1.663c-0.471,0.469-1.023,0.702-1.664,0.702h-9.466c-0.641,0-1.196-0.233-1.663-0.702
	c-0.469-0.469-0.702-1.023-0.702-1.663v-8.282c0-0.641,0.233-1.196,0.702-1.664c0.467-0.469,1.022-0.702,1.663-0.702h9.466
	c0.641,0,1.193,0.233,1.664,0.702c0.467,0.468,0.701,1.023,0.701,1.664V406.554z M519.248,387.622
	c-0.023,0.643-0.277,1.196-0.758,1.665c-0.482,0.469-1.041,0.703-1.682,0.703h-9.466c-0.641,0-1.201-0.234-1.683-0.703
	c-0.479-0.469-0.733-1.022-0.757-1.665l-1.035-28.395c-0.025-0.64,0.189-1.194,0.646-1.663c0.456-0.468,1.004-0.702,1.646-0.702
	h11.833c0.639,0,1.188,0.234,1.645,0.702c0.455,0.469,0.672,1.023,0.646,1.663L519.248,387.622z"/>
</svg>
