<?xml version="1.0" encoding="utf-8"?>
<!-- Generator: Adobe Illustrator 19.2.1, SVG Export Plug-In . SVG Version: 6.00 Build 0)  -->
<svg version="1.1" id="Layer_1" xmlns="http://www.w3.org/2000/svg" xmlns:xlink="http://www.w3.org/1999/xlink" x="0px" y="0px"
	 viewBox="0 0 126.9 35" style="enable-background:new 0 0 126.9 35;" xml:space="preserve">
<style type="text/css">
	.st0{fill:#FFFFFF;}
	.st1{fill:#1369B3;}
	.st2{fill:#F7941E;}
</style>
<g>
	<g>
		<g>
			<path class="st0" d="M30.8,26.5c0.6-0.4,0.9-0.9,0.9-1.7V10c0-0.7-0.4-1.3-0.9-1.7L17.9,0.9c-0.6-0.4-1.3-0.4-2,0L3.2,8.3
				C2.7,8.7,2.3,9.2,2.3,10v15c0,0.6,0.4,1.3,0.9,1.6L15.9,34c0.6,0.4,1.3,0.4,2,0L30.8,26.5z"/>
		</g>
		<path class="st1" d="M21.5,9.7c-1.9,0-3,0.9-3.9,1.9c-0.1,0.2-0.3,0.2-0.5,0.1c0,0-0.1-0.1-0.2-0.2c-1-1.1-2.2-1.8-4-1.8
			c-1.3,0-2.2,0.4-3,1v-0.3c0-0.5-0.3-0.7-0.8-0.7H8.2c-0.3,0-0.5,0.1-0.6,0.2c-0.2,0.1-0.3,0.3-0.3,0.6v14.7c0,0.5,0.3,0.7,0.7,0.7
			h1.1c0.3,0,0.5-0.1,0.6-0.2c0.2-0.1,0.3-0.3,0.3-0.6V14.6c0-1.1,0.5-2.2,3-2.2c1.9,0,2.8,1.6,2.8,3.1v9.7c0,0.5,0.3,0.7,0.8,0.7
			h1.1c0.5,0,0.8-0.3,0.8-0.7v-9.7c0-1.6,1-3.1,3.1-3.1c1.9,0,2.7,1.6,2.7,3.1v9.7c0,0.5,0.3,0.7,0.8,0.7h1.1c0.5,0,0.8-0.3,0.8-0.7
			v-10C26.9,12.3,24.9,9.7,21.5,9.7z"/>
		<g>
			<path class="st1" d="M6.5,21.8l4-4.2c0.2-0.2,0.5-0.4,0.9-0.4c0.1,0,0.3,0,0.4,0.1l7.3,2.7l5.7-6.4L24.1,13
				c-0.1-0.1-0.2-0.3-0.2-0.5c0-0.1,0-0.2,0-0.3c0.1-0.3,0.4-0.5,0.7-0.5l4-0.4c0.5,0,0.8,0.3,0.8,0.7l0.4,4c0,0.3-0.1,0.6-0.4,0.7
				c-0.1,0.1-0.2,0.1-0.4,0.1c-0.2,0-0.4-0.1-0.5-0.2l-1.2-1l-6.7,7.4c-0.2,0.2-0.5,0.4-0.9,0.4c-0.1,0-0.3,0-0.4-0.1l-7.4-2.7
				l-4.2,4.3c-0.2,0.2-0.4,0.3-0.6,0.3l-0.6,0.1C6.5,25.2,6.5,21.8,6.5,21.8z"/>
			<g>
				<path class="st0" d="M28.7,11.7c0.1,0,0.2,0.1,0.3,0.2l0.4,4c0,0.1,0,0.2-0.1,0.3h-0.1c-0.1,0-0.1,0-0.2-0.1l-1.7-1.4l-7.1,7.7
					c-0.1,0.1-0.3,0.2-0.5,0.2c-0.1,0-0.2,0-0.2,0l-7.7-2.8l-4.4,4.6c-0.1,0.1-0.3,0.2-0.4,0.2V22l3.9-4.1c0.1-0.1,0.3-0.2,0.5-0.2
					c0.1,0,0.2,0,0.2,0l7.7,2.9l6.2-7l-1-1c-0.1,0-0.1-0.1-0.1-0.2v-0.1c0-0.1,0.1-0.2,0.2-0.2L28.7,11.7L28.7,11.7 M28.7,10.7
					L28.7,10.7h-0.1l-4,0.4c-0.5,0-0.9,0.4-1.1,0.9c-0.1,0.2-0.1,0.3-0.1,0.5c0,0.3,0.2,0.6,0.4,0.8l0.3,0.3l-5.2,5.8l-7-2.6
					c-0.2-0.1-0.4-0.1-0.6-0.1c-0.5,0-0.9,0.2-1.2,0.5l-3.8,4.1L6,21.6V22v2.6v1.2l1.2-0.2c0.3-0.1,0.6-0.2,0.9-0.5L12,21l7.1,2.6
					c0.2,0.1,0.4,0.1,0.6,0.1c0.5,0,0.9-0.2,1.2-0.5l6.4-7l0.9,0.8c0.2,0.2,0.5,0.3,0.8,0.3c0.2,0,0.4,0,0.6-0.1
					c0.4-0.2,0.7-0.7,0.7-1.2l-0.4-4C29.9,11.2,29.3,10.7,28.7,10.7L28.7,10.7z"/>
			</g>
		</g>
	</g>
	<g>
		<path class="st0" d="M62.8,13.4c-0.1,0-0.2,0-0.2,0l0,0c-1.1,0-2.1,0.3-2.9,0.8c-0.2,0.1-0.3,0.3-0.4,0.5c0,0.1,0,0.2,0.1,0.3
			l0.3,0.6c0.2,0.3,0.4,0.4,0.7,0.3c0.5-0.3,1.2-0.5,2.2-0.5l0,0c1.5,0,2.3,1.2,2.3,2.4v0.6c0,0.4-0.2,0.6-0.6,0.6h-4.9l0,0
			c-0.7,0-1.1,0.4-1.1,1.1v1.8l0,0c0,2.1,1.5,4,3.8,4.2c0,0,0,0,0.1,0s0.3,0,0.4,0l0,0l0,0c0.2,0,0.3,0,0.4,0h0.1
			c0.1,0,0.3,0,0.4-0.1l0,0c0.6-0.1,1-0.3,1.3-0.5c0.1-0.1,0.3-0.1,0.4,0.1c0.1,0.1,0.2,0.2,0.4,0.2h0.7c0.4,0,0.6-0.2,0.6-0.6v-7.6
			C66.8,15.4,65.2,13.5,62.8,13.4z M64.7,22.6L64.7,22.6c0,0.1,0,0.1,0,0.1c-0.2,0.6-0.7,1.1-1.3,1.3c-0.2,0.1-0.5,0.1-0.8,0.1
			c-1.5,0-2.3-1.2-2.3-2.4l0,0c0-0.4,0.1-0.8,0.3-1.1c0.1,0,0.2-0.1,0.3-0.1h3.4c0.1,0,0.2,0,0.3,0.1c0.2,0.4,0.3,0.7,0.3,1.1
			C64.8,22,64.8,22.3,64.7,22.6z"/>
		<g>
			<g>
				<path class="st0" d="M54.9,16.1c0.3-0.6,0.4-1.9-0.1-2.1l-0.4-0.2c-1.3-0.4-2.6-0.2-3.7,0.4c-0.1,0.1-0.2,0.1-0.3,0.2v-0.5
					c0-0.4-0.2-0.6-0.6-0.6h-0.9c-0.2,0-0.4,0.1-0.5,0.2c-0.1,0.1-0.2,0.3-0.2,0.5v11.4c0,0.4,0.2,0.6,0.6,0.6h0.9
					c0.2,0,0.4-0.1,0.5-0.2s0.2-0.3,0.2-0.5c0,0,0-6.7,0-7.3c0-0.8,0.2-1.2,0.3-1.4c0.8-0.9,2-0.6,2.9-0.4
					C54,16.4,54.7,16.5,54.9,16.1z"/>
			</g>
		</g>
		<g>
			<path class="st2" d="M98.1,9.7c0-0.3-0.2-0.5-0.5-0.5h-0.8c-0.2,0-0.3,0.1-0.4,0.2c-0.1,0.1-0.2,0.2-0.2,0.4v0.8
				c0,0.3,0.2,0.5,0.5,0.5h0.8c0.2,0,0.3-0.1,0.4-0.2c0.1-0.1,0.2-0.2,0.2-0.4V9.7z"/>
			<path class="st0" d="M98.1,13.9c0-0.4-0.2-0.6-0.6-0.6h-0.9c-0.2,0-0.4,0.1-0.4,0.2C96.1,13.6,96,13.8,96,14v11.4
				c0,0.4,0.2,0.6,0.6,0.6h0.9c0.2,0,0.4-0.1,0.5-0.2s0.2-0.3,0.2-0.5L98.1,13.9L98.1,13.9z"/>
		</g>
		<g>
			<path class="st0" d="M41.7,11.8c0-0.4-0.2-0.7-0.6-0.7h-0.9c-0.2,0-0.4,0.1-0.4,0.2c-0.1,0.1-0.2,0.3-0.2,0.6v13.4
				c0,0.4,0.2,0.7,0.6,0.7h0.9c0.2,0,0.4-0.1,0.5-0.2s0.2-0.3,0.2-0.6L41.7,11.8L41.7,11.8z"/>
			<path class="st0" d="M46.5,11.5c0.4,0,0.6-0.2,0.6-0.6V10c0-0.2-0.1-0.4-0.2-0.4c-0.1-0.1-0.3-0.2-0.5-0.2H35
				c-0.4,0-0.6,0.2-0.6,0.6v0.9c0,0.2,0.1,0.4,0.2,0.5c0.1,0.1,0.3,0.2,0.5,0.2h11.4V11.5z"/>
		</g>
		<g>
			<path class="st0" d="M89.2,13.7c0.2,0,0.3-0.2,0.3-0.6v-0.9c0-0.2,0-0.4-0.1-0.4c0-0.1-0.1-0.2-0.2-0.2h-5.6
				c-0.2,0-0.3,0.2-0.3,0.6v0.9c0,0.2,0,0.4,0.1,0.5c0,0.1,0.1,0.2,0.2,0.2h5.6V13.7z"/>
			<path class="st0" d="M89.1,26c-2.5,0-4.2-1.9-4.2-4.1V9.5c0-0.4,0.2-0.6,0.6-0.6h0.8c0.4,0,0.6,0.2,0.6,0.6v12.3
				c0,1.1,0.8,2.3,2.2,2.3c0.8,0,1.2-0.3,1.5-0.6c0.4-0.3,0.6-0.3,0.9-0.1l0.5,0.4c0.3,0.2,0.3,0.6,0.1,0.8
				C91.5,25.3,90.5,26,89.1,26z"/>
		</g>
		<path class="st0" d="M120.3,13.3c-1,0-1.7,0.3-2.3,0.8v-0.2c0-0.4-0.2-0.6-0.6-0.6h-0.9c-0.2,0-0.4,0.1-0.5,0.2
			c-0.1,0.1-0.2,0.3-0.2,0.5v11.4c0,0.4,0.2,0.6,0.6,0.6h0.9c0.2,0,0.4-0.1,0.5-0.2s0.2-0.3,0.2-0.5v-8.2c0-0.9,0.4-1.7,2.3-1.7
			c1.5,0,2.2,1,2.2,2.2v7.8c0,0.4,0.2,0.6,0.6,0.6h0.9c0.4,0,0.6-0.2,0.6-0.6c0,0,0-7.4,0-8C124.5,16.7,124.3,13.3,120.3,13.3z"/>
		<path class="st0" d="M79,23.3c-0.6,0.3-1.3,0.5-2.1,0.5c-2.4,0-3.5-1.9-3.5-4.2s1.1-4.2,3.5-4.2c0.8,0,1.5,0.2,2.1,0.5
			c0.2,0.1,0.7,0.3,1,0c0.2-0.2,0.4-0.5,0.5-0.7s0.5-0.7-0.6-1.2c-0.9-0.4-1.9-0.7-3-0.7c-3.6,0-5.6,2.8-5.6,6.3s2,6.3,5.6,6.3
			c1.2,0,2.3-0.3,3.3-0.9c0.8-0.5,0.3-1,0.3-1L80,23.2C80,23.3,79.8,22.9,79,23.3z"/>
		<path class="st0" d="M112.4,19.7c0,1.2-0.1,2.1-0.3,2.9c-0.2,0.7-0.6,1.4-1.1,1.9c-0.4,0.4-1,0.8-1.6,1.1
			c-0.6,0.3-1.4,0.4-2.2,0.4c-0.8,0-1.6-0.1-2.2-0.4s-1.2-0.6-1.6-1.1c-0.5-0.5-0.9-1.2-1.1-1.9c-0.2-0.7-0.3-1.7-0.3-2.9
			c0-1.2,0.1-2.1,0.3-2.8c0.2-0.7,0.6-1.4,1.1-1.9c0.4-0.5,1-0.8,1.6-1.1s1.4-0.4,2.2-0.4c0.8,0,1.6,0.1,2.2,0.4
			c0.6,0.3,1.2,0.6,1.6,1.1c0.5,0.5,0.9,1.2,1.1,1.9C112.3,17.6,112.4,18.5,112.4,19.7z M110.1,19.5c0-0.9-0.1-1.7-0.2-2.2
			c-0.1-0.6-0.4-1-0.8-1.4c-0.5-0.4-1.2-0.7-2-0.7s-1.4,0.2-1.9,0.7c-0.4,0.3-0.6,0.8-0.8,1.4c-0.1,0.6-0.2,1.3-0.2,2.2
			c0,0.9,0.1,1.7,0.2,2.2c0.1,0.6,0.4,1,0.8,1.4c0.5,0.4,1.1,0.7,1.9,0.7s1.5-0.2,2-0.7c0.4-0.4,0.7-0.8,0.8-1.4
			C110,21.2,110.1,20.5,110.1,19.5z"/>
	</g>
</g>
</svg>
